<?xml version="1.0" encoding="utf-8"?>
<!-- Generator: Adobe Illustrator 18.1.1, SVG Export Plug-In . SVG Version: 6.00 Build 0)  -->
<svg version="1.1" id="Layer_1" xmlns="http://www.w3.org/2000/svg" xmlns:xlink="http://www.w3.org/1999/xlink" x="0px" y="0px"
	 viewBox="0 0 2000 2000" enable-background="new 0 0 2000 2000" xml:space="preserve">
<path fill="none" d="M596.7,1362.3H1498c41.3,0,75.1-33.8,75.1-75.1c0-45.1-33.8-75.1-75.1-75.1H596.7c-41.3,0-75.1,33.8-75.1,75.1
	C521.6,1328.5,555.4,1362.3,596.7,1362.3z"/>
<path fill="none" d="M596.7,1065.6H1498c41.3,0,75.1-33.8,75.1-75.1c0-41.3-33.8-75.1-75.1-75.1H596.7c-41.3,0-75.1,33.8-75.1,75.1
	C521.6,1031.8,555.4,1065.6,596.7,1065.6z"/>
<path fill="none" d="M596.7,772.7H1498c41.3,0,75.1-33.8,75.1-75.1c0-41.3-33.8-75.1-75.1-75.1H596.7c-41.3,0-75.1,33.8-75.1,75.1
	C521.6,738.9,555.4,772.7,596.7,772.7z"/>
<path fill="none" d="M596.7,1655.2H1498c41.3,0,75.1-33.8,75.1-75.1c0-41.3-33.8-75.1-75.1-75.1H596.7c-41.3,0-75.1,33.8-75.1,75.1
	C521.6,1621.4,555.4,1655.2,596.7,1655.2z"/>
<path fill="#010101" d="M1723.3,21.7H371.4c-97.6,0-172.7,78.9-172.7,172.7v1592.2c0,97.6,78.9,172.7,172.7,172.7h1351.9
	c93.9,0,172.7-78.9,172.7-172.7V194.4C1896,96.8,1817.1,21.7,1723.3,21.7z M596.7,915.4H1498c41.3,0,75.1,33.8,75.1,75.1
	c0,41.3-33.8,75.1-75.1,75.1H596.7c-41.3,0-75.1-33.8-75.1-75.1C521.6,949.2,555.4,915.4,596.7,915.4z M521.6,697.6
	c0-41.3,33.8-75.1,75.1-75.1H1498c41.3,0,75.1,33.8,75.1,75.1c0,41.3-33.8,75.1-75.1,75.1H596.7
	C555.4,772.7,521.6,738.9,521.6,697.6z M596.7,1212.1H1498c41.3,0,75.1,30,75.1,75.1c0,41.3-33.8,75.1-75.1,75.1H596.7
	c-41.3,0-75.1-33.8-75.1-75.1C521.6,1245.9,555.4,1212.1,596.7,1212.1z M596.7,1505H1498c41.3,0,75.1,33.8,75.1,75.1
	c0,41.3-33.8,75.1-75.1,75.1H596.7c-41.3,0-75.1-33.8-75.1-75.1C521.6,1538.8,555.4,1505,596.7,1505z M1498,476.1H596.7
	c-41.3,0-75.1-33.8-75.1-75.1s33.8-75.1,75.1-75.1H1498c41.3,0,75.1,33.8,75.1,75.1C1573.1,442.3,1539.3,476.1,1498,476.1z"/>
</svg>
