<?xml version="1.0" encoding="utf-8"?>
<!-- Generator: Adobe Illustrator 18.1.1, SVG Export Plug-In . SVG Version: 6.00 Build 0)  -->
<svg version="1.1" id="Layer_1" xmlns="http://www.w3.org/2000/svg" xmlns:xlink="http://www.w3.org/1999/xlink" x="0px" y="0px"
	 viewBox="0 0 2000 2000" enable-background="new 0 0 2000 2000" xml:space="preserve">
<g>
	<path fill="#010101" d="M1486,533.6V360.2l-210.8-184.9v358.3H716.1V175.3L505.3,360.2v173.4H74.6v761.3v65.6c0,19,2,39.9,5.7,62
		c-3.7-18-5.7-36.7-5.7-55.7v124.3v65.8c0,150.8,117.4,268.1,268.1,268.1h195.2H1006h464.5h3.6h184.2
		c150.8,0,267.7-117.3,267.7-268.1V533.6H1486z M1168.5,1380.8c-106.6,81.4-134.5,135.2-168.1,168.8
		c-33.9-33.6-63.3-85.5-168.4-168.8c-101.2-79.9-235.6-186.1-235.6-334.8c0-220,269.2-304,404-102.1
		c134.4-201.9,403.7-117.9,403.7,100.5C1404.1,1192.9,1271.3,1302.5,1168.5,1380.8z"/>
	<rect x="740.8" y="176.1" fill="#010101" width="511.7" height="165"/>
</g>
</svg>
