<?xml version="1.0" encoding="utf-8"?>
<!-- Generator: Adobe Illustrator 18.1.1, SVG Export Plug-In . SVG Version: 6.00 Build 0)  -->
<svg version="1.1" id="Layer_1" xmlns="http://www.w3.org/2000/svg" xmlns:xlink="http://www.w3.org/1999/xlink" x="0px" y="0px"
	 viewBox="0 0 2000 2000" enable-background="new 0 0 2000 2000" xml:space="preserve">
<path fill="none" d="M1625.2,1200.9c-6.1-2.5-12.1-5.1-18.9-7.5c-56.1-20.4-79.2-35-79.2-56.1c0-18.5,13.9-37.6,56.8-37.6
	c47.5,0,78.5,15.2,95,23.1l19.8-74.5c-22.4-10.6-52.1-20.4-96.3-21.8v-58.1h-64.7v62.7c-70.6,13.2-111.5,58.7-111.5,117.4
	c0,64,48.2,97,118.7,120.7c3.1,1.1,5.8,2.1,8.8,3.2c42.5,15.4,61.8,30.8,61.8,54.2c0,25.7-26.4,40.9-64,40.9
	c-28.6,0-55.3-6.2-78.2-14.8c-11.5-4.3-22.1-9.2-31.3-14.3l-15.7,61.3l-4.1,15.9c25.1,13.9,67.9,26.4,112.2,27.7v63.3h64.7v-68
	c76.5-13.2,117.5-62.7,117.5-121.4C1716.4,1262.6,1690.1,1227.7,1625.2,1200.9z"/>
<path fill="#010101" d="M1095.8,1237.7c0-261.5,212-473.5,473.5-473.5c110.5,0,212,38.2,292.6,101.7
	c53.4-182.6,5.9-378.5-133.5-517.1c-206.8-205.8-541.3-204.9-747.1,2c-205.7-206.9-540.2-207.8-747.1-2
	C27.3,554.4,22.5,886,249.9,1113.6c253.9,253.9,660.2,660.3,731.3,731.5c32.7-32.7,136.3-136.3,263.3-263.4
	C1153.1,1495.3,1095.8,1373.4,1095.8,1237.7z"/>
<path fill="#010101" d="M1833.3,941.9c-70.2-62.7-162.5-101.1-264-101.1c-219.2,0-396.8,177.7-396.8,396.8
	c0,114.5,48.8,217.3,126.3,289.8c70.9,66.2,165.8,107.1,270.5,107.1c219.2,0,396.8-177.7,396.8-396.8
	C1966.1,1120,1914.6,1014.6,1833.3,941.9z M1598.9,1438.9v68h-64.7v-63.3c-44.2-1.3-87.1-13.9-112.2-27.7l4.1-15.9l15.7-61.3
	c9.2,5.1,19.9,9.9,31.3,14.3c22.9,8.6,49.6,14.8,78.2,14.8c37.6,0,64-15.2,64-40.9c0-23.5-19.4-38.8-61.8-54.2
	c-2.9-1-5.6-2.1-8.8-3.2c-70.6-23.7-118.7-56.7-118.7-120.7c0-58.7,40.9-104.2,111.5-117.4v-62.7h64.7v58.1
	c44.2,1.3,73.9,11.2,96.3,21.8l-19.8,74.5c-16.5-7.9-47.5-23.1-95-23.1c-42.9,0-56.8,19.1-56.8,37.6c0,21.1,23.1,35.6,79.2,56.1
	c6.8,2.4,12.8,4.9,18.9,7.5c64.9,26.8,91.2,61.7,91.2,116.6C1716.4,1376.2,1675.5,1425.7,1598.9,1438.9z"/>
</svg>
