<?xml version="1.0" encoding="utf-8"?>
<!-- Generator: Adobe Illustrator 18.1.1, SVG Export Plug-In . SVG Version: 6.00 Build 0)  -->
<svg version="1.1" id="Layer_1" xmlns="http://www.w3.org/2000/svg" xmlns:xlink="http://www.w3.org/1999/xlink" x="0px" y="0px"
	 viewBox="0 0 2000 2000" enable-background="new 0 0 2000 2000" xml:space="preserve">
<g>
	<path fill="#010101" d="M64.7,501.5h1867.9c16.2,0,27.1-10.8,27.1-27.1s-10.8-27.1-27.1-27.1H64.7c-16.2,0-27.1,10.8-27.1,27.1
		S51.1,501.5,64.7,501.5z"/>
	<path fill="#010101" d="M1935.3,972.5H67.4c-16.2,0-27.1,10.8-27.1,27.1c0,16.2,10.8,27.1,27.1,27.1h1867.9
		c16.2,0,27.1-10.8,27.1-27.1C1962.4,983.4,1948.9,972.5,1935.3,972.5z"/>
	<path fill="#010101" d="M1935.3,1497.7H67.4c-16.2,0-27.1,10.8-27.1,27.1s10.8,27.1,27.1,27.1h1867.9c16.2,0,27.1-10.8,27.1-27.1
		S1948.9,1497.7,1935.3,1497.7z"/>
</g>
</svg>
