<?xml version="1.0" encoding="utf-8"?>
<!-- Generator: Adobe Illustrator 18.1.1, SVG Export Plug-In . SVG Version: 6.00 Build 0)  -->
<svg version="1.1" id="Layer_1" xmlns="http://www.w3.org/2000/svg" xmlns:xlink="http://www.w3.org/1999/xlink" x="0px" y="0px"
	 viewBox="0 0 2000 2000" enable-background="new 0 0 2000 2000" xml:space="preserve">
<path fill="#010101" d="M1645.2,116H373.1C219.9,116,95.6,240.3,95.6,393.6v1275c0,153.2,124.3,277.5,277.5,277.5h1275
	c153.2,0,277.5-124.3,277.5-277.5v-1275C1925.6,240.3,1801.3,116,1645.2,116z M1859.1,1668.5c0,118.5-95.4,213.9-213.9,213.9H373.1
	c-118.5,0-213.9-95.4-213.9-213.9v-1275c0-118.5,95.4-213.9,213.9-213.9h1275c118.5,0,213.9,95.4,213.9,213.9v1275H1859.1z
	 M1188.4,1099c-8.7,0-17.3,2.9-23.1,11.6l0,0c0,0-57.8,54.9-153.2,54.9s-153.2-54.9-153.2-54.9l0,0c-5.8-5.8-14.5-11.6-23.1-11.6
	c-121.4,0-216.8,40.5-283.3,118.5c-141.7,161.9-104.1,433.7-101.2,445.2c2.9,17.3,17.3,28.9,31.8,28.9h1063.9
	c17.3,0,28.9-11.6,31.8-28.9c2.9-11.6,37.6-283.3-101.2-445.2C1408.1,1136.6,1309.8,1099,1188.4,1099z M1012.1,1229.1
	c40.5,0,75.2-8.7,101.2-17.3l-101.2,211l-101.2-211C939.8,1220.4,971.6,1229.1,1012.1,1229.1z M1515.1,1625.1H509
	c-5.8-69.4-8.7-251.5,89.6-364.3c52-57.8,124.3-89.6,213.9-95.4l167.7,346.9c11.6,23.1,49.1,23.1,57.8,0l167.7-346.9
	c92.5,2.9,164.8,34.7,213.9,95.4C1520.9,1370.7,1518,1552.9,1515.1,1625.1z M1012.1,1041.2c170.6,0,309.3-138.8,309.3-309.3
	s-138.8-309.3-309.3-309.3S702.7,561.2,702.7,731.8S841.5,1041.2,1012.1,1041.2z M1012.1,486.1c135.9,0,245.7,109.9,245.7,245.7
	s-109.9,245.7-245.7,245.7S766.3,867.7,766.3,731.8C766.3,595.9,876.2,486.1,1012.1,486.1z"/>
</svg>
