<?xml version="1.0" encoding="utf-8"?>
<!-- Generator: Adobe Illustrator 18.1.1, SVG Export Plug-In . SVG Version: 6.00 Build 0)  -->
<svg version="1.1" id="Layer_1" xmlns="http://www.w3.org/2000/svg" xmlns:xlink="http://www.w3.org/1999/xlink" x="0px" y="0px"
	 viewBox="0 0 2000 2000" enable-background="new 0 0 2000 2000" xml:space="preserve">
<g>
	<path fill="#010101" d="M1785.7,107.5c64.2,0,116.4,52.2,116.4,116.4v1556.7c0,64.2-52.2,116.4-116.4,116.4H229
		c-64.2,0-116.4-52.2-116.4-116.4V223.9c0-64.2,52.2-116.4,116.4-116.4L1785.7,107.5 M1785.7,49.3H229
		c-96.4,0-174.6,78.2-174.6,174.6v1556.7c0,96.4,78.1,174.6,174.6,174.6h1556.7c96.4,0,174.6-78.2,174.6-174.6V223.9
		C1960.3,127.5,1882.1,49.3,1785.7,49.3L1785.7,49.3z"/>
	<path fill="#010101" d="M1484.6,1479.6H530.1c-92.6,0-167.9-75.3-167.9-167.9V814.3c0-92.6,75.3-167.9,167.9-167.9h67.2
		c20.3-70.8,85.7-121.5,161.3-121.5h497.5c75.6,0,141,50.7,161.3,121.5h67.2c92.6,0,167.9,75.3,167.9,167.9v497.5
		C1652.5,1404.3,1577.1,1479.6,1484.6,1479.6z M530.1,704.5c-60.5,0-109.7,49.2-109.7,109.7v497.5c0,60.5,49.2,109.7,109.7,109.7
		h954.4c60.5,0,109.7-49.2,109.7-109.7V814.3c0-60.5-49.2-109.7-109.7-109.7H1368l-3.2-25.5c-6.8-54.7-53.6-96-108.8-96H758.6
		c-55.1,0-101.9,41.3-108.8,96l-3.2,25.5L530.1,704.5L530.1,704.5z"/>
	<path fill="#010101" d="M1007.3,1357.9c-162,0-293.7-131.8-293.7-293.7s131.8-293.7,293.7-293.7s293.7,131.8,293.7,293.7
		S1169.3,1357.9,1007.3,1357.9z M1007.3,828.6c-129.9,0-235.5,105.7-235.5,235.5s105.7,235.5,235.5,235.5s235.5-105.7,235.5-235.5
		S1137.2,828.6,1007.3,828.6z"/>
	<path fill="#010101" d="M1094.1,643.4H920.6c-16.1,0-29.1,13-29.1,29.1c0,16.1,13,29.1,29.1,29.1h173.4c16.1,0,29.1-13,29.1-29.1
		C1123.2,656.4,1110.1,643.4,1094.1,643.4L1094.1,643.4z"/>
</g>
</svg>
