<?xml version="1.0" encoding="utf-8"?>
<!-- Generator: Adobe Illustrator 18.1.1, SVG Export Plug-In . SVG Version: 6.00 Build 0)  -->
<svg version="1.1" id="Layer_1" xmlns="http://www.w3.org/2000/svg" xmlns:xlink="http://www.w3.org/1999/xlink" x="0px" y="0px"
	 viewBox="0 0 2000 2000" enable-background="new 0 0 2000 2000" xml:space="preserve">
<path fill="#010101" d="M999.9,101.7c-505.6,0-913.8,408.2-913.8,913.8s408.2,913.8,913.8,913.8s913.8-408.2,913.8-913.8
	S1505.5,101.7,999.9,101.7z M1316.6,1064.3l-456.9,284.3c-10.2,6.1-20.3,8.1-30.5,8.1s-18.3-2-28.4-8.1
	c-18.3-10.2-28.4-28.4-28.4-50.8V729.2c0-20.3,12.2-40.6,28.4-50.8c18.3-10.2,40.6-10.2,58.9,2l456.9,286.3
	c16.2,10.2,26.4,28.4,26.4,48.7S1332.9,1054.1,1316.6,1064.3z"/>
</svg>
