<?xml version="1.0" encoding="utf-8"?>
<!-- Generator: Adobe Illustrator 18.1.1, SVG Export Plug-In . SVG Version: 6.00 Build 0)  -->
<svg version="1.1" id="Layer_1" xmlns="http://www.w3.org/2000/svg" xmlns:xlink="http://www.w3.org/1999/xlink" x="0px" y="0px"
	 viewBox="0 0 2000 2000" enable-background="new 0 0 2000 2000" xml:space="preserve">
<path fill="#010101" d="M1903,1811.9l-507.3-510.5c111.1-133.6,178-305,178-491.2c0-423.8-346.8-770.6-770.6-770.6
	S32.6,386.4,32.6,810.2s346.8,770.6,770.6,770.6c188,0,360.8-68.2,494.9-181.1l510.3,510.3c10.5,14,28,21,45.5,21s35-7,49-21l0,0
	c14-14,21-31.5,21-49C1924,1843.5,1917,1826,1903,1811.9z M172.7,810.2c0-346.8,283.7-630.5,630.5-630.5s630.5,283.7,630.5,630.5
	s-283.7,630.5-630.5,630.5S172.7,1157,172.7,810.2z"/>
</svg>
