<?xml version="1.0" encoding="utf-8"?>
<!-- Generator: Adobe Illustrator 18.1.1, SVG Export Plug-In . SVG Version: 6.00 Build 0)  -->
<svg version="1.1" id="Layer_1" xmlns="http://www.w3.org/2000/svg" xmlns:xlink="http://www.w3.org/1999/xlink" x="0px" y="0px"
	 viewBox="0 0 2000 2000" enable-background="new 0 0 2000 2000" xml:space="preserve">
<path fill="#010101" d="M1552.7,896.8l-456,456v-228c0,0-456-114-684.1,228c0-377.8,306.3-684.1,684.1-684.1v-228L1552.7,896.8z
	 M1894.7,1010.8c0,503.7-408.4,912.1-912.1,912.1c-503.7,0-912.1-408.4-912.1-912.1S478.9,98.7,982.6,98.7
	C1486.3,98.7,1894.7,507.1,1894.7,1010.8z M1780.7,1010.8c0-440-358.1-798.1-798.1-798.1c-440.1,0-798.1,358.1-798.1,798.1
	s358,798.1,798.1,798.1C1422.6,1808.8,1780.7,1450.8,1780.7,1010.8z"/>
</svg>
